<svg width="24" height="24" viewBox="0 0 24 24" fill="none" xmlns="http://www.w3.org/2000/svg">
<g clip-path="url(#clip0_82_25533)">
<path fill-rule="evenodd" clip-rule="evenodd" d="M10.2 4C6.77584 4 4 6.77584 4 10.2C4 13.6242 6.77584 16.4 10.2 16.4C13.6242 16.4 16.4 13.6242 16.4 10.2C16.4 6.77584 13.6242 4 10.2 4ZM2 10.2C2 5.67127 5.67127 2 10.2 2C14.7287 2 18.4 5.67127 18.4 10.2C18.4 12.104 17.7511 13.8564 16.6624 15.2481L21.1071 19.6929C21.4976 20.0834 21.4976 20.7166 21.1071 21.1071C20.7166 21.4976 20.0834 21.4976 19.6929 21.1071L15.2481 16.6624C13.8564 17.7511 12.104 18.4 10.2 18.4C5.67127 18.4 2 14.7287 2 10.2Z" fill="#070F16" fill-opacity="0.82"/>
</g>
<defs>
<clipPath id="clip0_82_25533">
<rect width="24" height="24" fill="white"/>
</clipPath>
</defs>
</svg>
