<svg width="24" height="24" viewBox="0 0 24 24" fill="none" xmlns="http://www.w3.org/2000/svg">
<g clip-path="url(#clip0_82_25674)">
<path d="M11.0193 3.04723C11.4194 2.2336 12.5794 2.2336 12.9795 3.04723L15.121 7.4017C15.2796 7.7243 15.5869 7.94817 15.9425 8.00036L20.7398 8.70416C21.6341 8.83536 21.9911 9.93397 21.3448 10.5658L17.8701 13.9628C17.6136 14.2135 17.4966 14.5742 17.557 14.9278L18.3761 19.7213C18.5287 20.6142 17.5907 21.2941 16.7896 20.8712L12.5093 18.6118C12.1903 18.4434 11.8086 18.4434 11.4896 18.6118L7.20925 20.8712C6.40821 21.294 5.47021 20.6142 5.62278 19.7213L6.44188 14.9278C6.50229 14.5742 6.38527 14.2135 6.1288 13.9628L2.65409 10.5658C2.0078 9.93397 2.36482 8.83536 3.25908 8.70416L8.05633 8.00036C8.41202 7.94817 8.71925 7.7243 8.8779 7.4017L11.0193 3.04723Z" fill="#FEBB10" fill-opacity="1"/>
</g>
<defs>
<clipPath id="clip0_82_25674">
<rect width="24" height="24" fill="white"/>
</clipPath>
</defs>
</svg>
