<svg width="24" height="24" viewBox="0 0 24 24" fill="none" xmlns="http://www.w3.org/2000/svg">
<rect x="2" y="2" width="18" height="20" rx="3" fill="#5BABFB"/>
<path fill-rule="evenodd" clip-rule="evenodd" d="M5 7C5 6.44772 5.44772 6 6 6H12C12.5523 6 13 6.44772 13 7C13 7.55228 12.5523 8 12 8H6C5.44772 8 5 7.55228 5 7Z" fill="white"/>
<path fill-rule="evenodd" clip-rule="evenodd" d="M5 11C5 10.4477 5.44772 10 6 10H9C9.55228 10 10 10.4477 10 11C10 11.5523 9.55228 12 9 12H6C5.44772 12 5 11.5523 5 11Z" fill="white"/>
<path d="M16.3658 17.2533L12.733 17.8745C12.3829 17.9343 12.0837 17.6202 12.1606 17.2734L12.9272 13.8147L20.035 6.70696C20.4255 6.31643 21.0587 6.31643 21.4492 6.70696L23.4736 8.7313C23.8641 9.12182 23.8641 9.75499 23.4736 10.1455L16.3658 17.2533Z" fill="#2589F4"/>
</svg>
