<svg width="24" height="24" viewBox="0 0 24 24" fill="none" xmlns="http://www.w3.org/2000/svg">
<g clip-path="url(#clip0_82_25679)">
<path fill-rule="evenodd" clip-rule="evenodd" d="M10.2053 3.33798C10.938 1.84812 13.0621 1.84811 13.7948 3.33798L15.7554 7.3248L20.1476 7.96918C21.7851 8.20942 22.4389 10.2211 21.2554 11.3781L18.0741 14.4883L18.824 18.8771C19.1034 20.5121 17.3858 21.757 15.919 20.9827L12 18.9141L8.0811 20.9827C6.61428 21.757 4.89669 20.5121 5.17606 18.8771L5.926 14.4883L2.74467 11.3781C1.56122 10.2211 2.21498 8.20942 3.85249 7.96918L8.2447 7.3248L10.2053 3.33798ZM13.9607 8.2074L12 4.22058L10.0394 8.2074C9.74891 8.79812 9.18633 9.20806 8.53501 9.30362L4.1428 9.948L7.32413 13.0582C7.79377 13.5173 8.00805 14.1778 7.89743 14.8252L7.14748 19.214L11.0664 17.1454C11.6506 16.837 12.3494 16.837 12.9337 17.1454L16.8526 19.214L16.1027 14.8252C15.992 14.1778 16.2063 13.5173 16.676 13.0582L19.8573 9.948L15.4651 9.30362C14.8138 9.20806 14.2512 8.79812 13.9607 8.2074Z" fill="#323F4F" fill-opacity="0.5"/>
</g>
<defs>
<clipPath id="clip0_82_25679">
<rect width="24" height="24" fill="white"/>
</clipPath>
</defs>
</svg>
