<svg width="24" height="24" viewBox="0 0 24 24" fill="none" xmlns="http://www.w3.org/2000/svg">
<path d="M1 6C1 4.34315 2.34315 3 4 3H18C19.6569 3 21 4.34315 21 6V16C21 17.6569 19.6569 19 18 19H4C2.34315 19 1 17.6569 1 16V6Z" fill="#D378F2"/>
<circle cx="18" cy="16" r="5" fill="#B348E5"/>
<path d="M17.6961 13.1972C17.8202 12.9343 18.1798 12.9343 18.3039 13.1972L18.9679 14.6047C19.0171 14.709 19.1124 14.7813 19.2226 14.7982L20.7101 15.0257C20.9874 15.0681 21.0981 15.4232 20.8977 15.6274L19.8203 16.7254C19.7408 16.8065 19.7045 16.923 19.7232 17.0373L19.9772 18.5867C20.0245 18.8753 19.7337 19.0951 19.4853 18.9584L18.1581 18.2281C18.0592 18.1737 17.9408 18.1737 17.8419 18.2281L16.5147 18.9584C16.2663 19.0951 15.9755 18.8753 16.0228 18.5867L16.2768 17.0373C16.2955 16.923 16.2592 16.8065 16.1797 16.7254L15.1023 15.6274C14.9019 15.4232 15.0126 15.0681 15.2899 15.0257L16.7774 14.7982C16.8876 14.7813 16.9829 14.709 17.0321 14.6047L17.6961 13.1972Z" fill="white"/>
<path d="M3 6C3 5.44772 3.44772 5 4 5H18C18.5523 5 19 5.44772 19 6C19 6.55228 18.5523 7 18 7H4C3.44772 7 3 6.55228 3 6Z" fill="white"/>
</svg>
