<svg width="24" height="24" viewBox="0 0 24 24" fill="none" xmlns="http://www.w3.org/2000/svg">
<path d="M2 7C2 5.34315 3.34315 4 5 4H19C20.6569 4 22 5.34315 22 7V17C22 18.6569 20.6569 20 19 20H5C3.34315 20 2 18.6569 2 17V7Z" fill="#5B8BFB"/>
<path fill-rule="evenodd" clip-rule="evenodd" d="M11 9.5C11 10.6046 10.1046 11.5 9 11.5C7.89543 11.5 7 10.6046 7 9.5C7 8.39543 7.89543 7.5 9 7.5C10.1046 7.5 11 8.39543 11 9.5ZM13 15.3887C13 14.5 11.8887 12.5 9 12.5C6.11127 12.5 5 14.3887 5 15.3887C5 16.2775 7.3331 16.5 9 16.5C10.6669 16.5 13 16.2775 13 15.3887Z" fill="white"/>
<path d="M14.5 10C14.5 9.44772 14.9477 9 15.5 9H18.5C19.0523 9 19.5 9.44772 19.5 10C19.5 10.5523 19.0523 11 18.5 11H15.5C14.9477 11 14.5 10.5523 14.5 10Z" fill="#255CF4"/>
<path d="M16 14C16 13.4477 16.4477 13 17 13H18.5C19.0523 13 19.5 13.4477 19.5 14C19.5 14.5523 19.0523 15 18.5 15H17C16.4477 15 16 14.5523 16 14Z" fill="#255CF4"/>
</svg>
