<svg width="24" height="24" viewBox="0 0 24 24" fill="none" xmlns="http://www.w3.org/2000/svg">
<g clip-path="url(#clip0_82_25740)">
<path fill-rule="evenodd" clip-rule="evenodd" d="M12 8.55295C11.3096 8.55295 10.75 9.1126 10.75 9.80295C10.75 10.3552 10.3023 10.803 9.75 10.803C9.19772 10.803 8.75 10.3552 8.75 9.80295C8.75 8.00803 10.2051 6.55295 12 6.55295C13.7949 6.55295 15.25 8.00803 15.25 9.80295C15.25 11.0072 14.5945 12.0571 13.6257 12.6175C13.5675 12.6512 13.5081 12.6832 13.4476 12.7133C13.2749 12.7993 13.1418 12.901 13.0636 12.991C13.0269 13.0333 13.0107 13.0634 13.0042 13.0785C13.0012 13.0857 13.0003 13.0895 13.0001 13.0904C13.0001 13.6427 12.5523 14.0911 12 14.0911C11.4477 14.0911 11 13.6434 11 13.0911C11 11.9203 11.9567 11.2215 12.556 10.9231C12.5791 10.9115 12.6019 10.8993 12.6243 10.8863C13.0005 10.6687 13.25 10.2644 13.25 9.80295C13.25 9.1126 12.6904 8.55295 12 8.55295ZM11 15.803C11 15.2507 11.4477 14.803 12 14.803H12.0075C12.5598 14.803 13.0075 15.2507 13.0075 15.803C13.0075 16.3552 12.5598 16.803 12.0075 16.803H12C11.4477 16.803 11 16.3552 11 15.803Z" fill="#323F4F" fill-opacity="0.50"/>
<path fill-rule="evenodd" clip-rule="evenodd" d="M12 4C7.58172 4 4 7.58172 4 12C4 16.4183 7.58172 20 12 20C16.4183 20 20 16.4183 20 12C20 7.58172 16.4183 4 12 4ZM2 12C2 6.47715 6.47715 2 12 2C17.5228 2 22 6.47715 22 12C22 17.5228 17.5228 22 12 22C6.47715 22 2 17.5228 2 12Z" fill="#323F4F" fill-opacity="0.50"/>
</g>
<defs>
<clipPath id="clip0_82_25740">
<rect width="24" height="24" fill="white"/>
</clipPath>
</defs>
</svg>
