<svg width="24" height="24" viewBox="0 0 24 24" fill="none" xmlns="http://www.w3.org/2000/svg">
<path fill-rule="evenodd" clip-rule="evenodd" d="M11.6305 21.9145C11.7445 21.9723 11.872 22.0017 11.9995 22.0008C12.1269 21.9998 12.2533 21.9694 12.3684 21.9105L16.1301 20.0034C17.1715 19.4641 17.987 18.8611 18.6234 18.1589C20.0068 16.6293 20.7622 14.677 20.7488 12.6639L20.7052 6.02367C20.7011 5.25884 20.184 4.57638 19.4192 4.3283L12.6355 2.10053C12.2242 1.96522 11.7733 1.96816 11.3692 2.1074L4.51429 4.41459C3.75367 4.67247 3.24589 5.35983 3.25003 6.12565L3.29356 12.761C3.30703 14.777 4.08839 16.7205 5.49463 18.2345C6.13713 18.9268 6.95994 19.521 8.0128 20.0514L11.6305 21.9145Z" fill="#64BFD4"/>
<path fill-rule="evenodd" clip-rule="evenodd" d="M16.3395 8.91399C16.6641 9.24022 16.6628 9.76783 16.3366 10.0924L11.3118 15.0922C10.9911 15.4112 10.4745 15.4162 10.1478 15.1034L7.67303 12.7339C7.34061 12.4157 7.32914 11.8882 7.64741 11.5558C7.96568 11.2234 8.49316 11.2119 8.82557 11.5302L10.7128 13.3371L15.1611 8.91105C15.4873 8.58645 16.0149 8.58777 16.3395 8.91399Z" fill="white"/>
</svg>
