<svg width="24" height="24" viewBox="0 0 24 24" fill="none" xmlns="http://www.w3.org/2000/svg">
<g clip-path="url(#clip0_10891_43664)">
<path d="M0 12C0 5.37258 5.37258 0 12 0C18.6274 0 24 5.37258 24 12C24 18.6274 18.6274 24 12 24C5.37258 24 0 18.6274 0 12Z" fill="#2589F4"/>
<path fill-rule="evenodd" clip-rule="evenodd" d="M6.29304 11.2929C6.68357 10.9024 7.31673 10.9024 7.70726 11.2929L10.5357 14.1213L16.1925 8.46447C16.5831 8.07394 17.2162 8.07394 17.6068 8.46447C17.9973 8.85499 17.9973 9.48815 17.6068 9.87868L11.2428 16.2426C10.8523 16.6332 10.2191 16.6332 9.82858 16.2426L6.29304 12.7071C5.90252 12.3166 5.90252 11.6834 6.29304 11.2929Z" fill="white"/>
</g>
<defs>
<clipPath id="clip0_10891_43664">
<rect width="24" height="24" fill="white"/>
</clipPath>
</defs>
</svg>
