<svg width="24" height="24" viewBox="0 0 24 24" fill="none" xmlns="http://www.w3.org/2000/svg">
<g clip-path="url(#clip0_13842_54836)">
<path d="M7.49736 8.58216C8.25619 10.1626 9.29064 11.6439 10.6007 12.954C11.9108 14.2641 13.3921 15.2985 14.9725 16.0573C15.1085 16.1226 15.1765 16.1552 15.2625 16.1803C15.5681 16.2694 15.9435 16.2054 16.2023 16.0201C16.2752 15.9679 16.3375 15.9056 16.4621 15.781C16.8433 15.3998 17.0339 15.2092 17.2255 15.0846C17.9483 14.6147 18.88 14.6147 19.6027 15.0846C19.7944 15.2092 19.985 15.3998 20.3661 15.781L20.5786 15.9934C21.158 16.5728 21.4477 16.8625 21.6051 17.1737C21.9181 17.7925 21.9181 18.5233 21.6051 19.1421C21.4477 19.4532 21.158 19.7429 20.5786 20.3223L20.4067 20.4942C19.8293 21.0717 19.5406 21.3604 19.148 21.5809C18.7125 21.8256 18.036 22.0015 17.5364 22C17.0861 21.9987 16.7784 21.9113 16.163 21.7367C12.8558 20.798 9.73501 19.0268 7.13144 16.4233C4.52787 13.8197 2.75674 10.6989 1.81804 7.39166C1.64337 6.77625 1.55604 6.46855 1.5547 6.01832C1.55321 5.51873 1.72914 4.84222 1.97382 4.40665C2.19433 4.01411 2.48305 3.7254 3.06048 3.14796L3.23235 2.97609C3.81177 2.39667 4.10148 2.10696 4.41263 1.94958C5.03143 1.6366 5.76221 1.6366 6.38101 1.94958C6.69215 2.10696 6.98186 2.39667 7.56128 2.97609L7.77375 3.18855C8.15492 3.56972 8.3455 3.76031 8.4701 3.95195C8.94001 4.67469 8.94001 5.60642 8.4701 6.32916C8.3455 6.52081 8.15491 6.71139 7.77375 7.09256C7.64911 7.21719 7.5868 7.27951 7.53464 7.35235C7.34928 7.61122 7.28528 7.98656 7.37438 8.29222C7.39945 8.37823 7.43209 8.44621 7.49736 8.58216Z" fill="#070F16" fill-opacity="0.82"/>
</g>
<defs>
<clipPath id="clip0_13842_54836">
<rect width="24" height="24" fill="white"/>
</clipPath>
</defs>
</svg>
