<svg width="40" height="40" viewBox="0 0 40 40" fill="none" xmlns="http://www.w3.org/2000/svg">
<path d="M0 17.312C0 3.05557 3.05557 0 17.312 0H22.688C36.9444 0 40 3.05557 40 17.312V22.688C40 36.9444 36.9444 40 22.688 40H17.312C3.05557 40 0 36.9444 0 22.688V17.312Z" fill="#E5F4FF"/>
<g clip-path="url(#clip0_17871_112677)">
<path d="M15.4974 16.5822C16.2562 18.1626 17.2906 19.6439 18.6007 20.954C19.9108 22.2641 21.3921 23.2985 22.9725 24.0573C23.1085 24.1226 23.1765 24.1552 23.2625 24.1803C23.5681 24.2694 23.9435 24.2054 24.2023 24.0201C24.2752 23.9679 24.3375 23.9056 24.4621 23.781C24.8433 23.3998 25.0339 23.2092 25.2255 23.0846C25.9483 22.6147 26.88 22.6147 27.6027 23.0846C27.7944 23.2092 27.985 23.3998 28.3661 23.781L28.5786 23.9934C29.158 24.5728 29.4477 24.8625 29.6051 25.1737C29.9181 25.7925 29.9181 26.5233 29.6051 27.1421C29.4477 27.4532 29.158 27.7429 28.5786 28.3223L28.4067 28.4942C27.8293 29.0717 27.5406 29.3604 27.148 29.5809C26.7125 29.8256 26.036 30.0015 25.5364 30C25.0861 29.9987 24.7784 29.9113 24.163 29.7367C20.8558 28.798 17.735 27.0268 15.1314 24.4233C12.5279 21.8197 10.7567 18.6989 9.81804 15.3917C9.64337 14.7763 9.55604 14.4686 9.5547 14.0183C9.55321 13.5187 9.72914 12.8422 9.97382 12.4067C10.1943 12.0141 10.483 11.7254 11.0605 11.148L11.2324 10.9761C11.8118 10.3967 12.1015 10.107 12.4126 9.94958C13.0314 9.6366 13.7622 9.6366 14.381 9.94958C14.6922 10.107 14.9819 10.3967 15.5613 10.9761L15.7737 11.1886C16.1549 11.5697 16.3455 11.7603 16.4701 11.952C16.94 12.6747 16.94 13.6064 16.4701 14.3292C16.3455 14.5208 16.1549 14.7114 15.7737 15.0926C15.6491 15.2172 15.5868 15.2795 15.5346 15.3524C15.3493 15.6112 15.2853 15.9866 15.3744 16.2922C15.3995 16.3782 15.4321 16.4462 15.4974 16.5822Z" fill="#2589F4"/>
</g>
<defs>
<clipPath id="clip0_17871_112677">
<rect width="24" height="24" fill="white" transform="translate(8 8)"/>
</clipPath>
</defs>
</svg>
