<svg width="24" height="24" viewBox="0 0 24 24" fill="none" xmlns="http://www.w3.org/2000/svg">
<g clip-path="url(#clip0_7698_28869)">
<path fill-rule="evenodd" clip-rule="evenodd" d="M15 2H6.66667C5.19391 2 4 3.19391 4 4.66667V19.3333C4 20.8061 5.19391 22 6.66667 22H17.3333C18.8061 22 20 20.8061 20 19.3333V7L15 2Z" fill="#6F7D8C" fill-opacity="0.4"/>
<path d="M15 5.66667V2L20 7H16.3333C15.597 7 15 6.40305 15 5.66667Z" fill="#6F7D8C" fill-opacity="0.4"/>
<path fill-rule="evenodd" clip-rule="evenodd" d="M8.6804 11.0001C9.23263 11.0076 9.67423 11.4613 9.66674 12.0136L9.66593 12.0736C9.65843 12.6258 9.20469 13.0674 8.65245 13.0599C8.10022 13.0524 7.65862 12.5987 7.66611 12.0464L7.66692 11.9864C7.67441 11.4342 8.12816 10.9926 8.6804 11.0001ZM12.0137 11.0001C12.566 11.0076 13.0076 11.4613 13.0001 12.0136L12.9993 12.0736C12.9918 12.6258 12.538 13.0674 11.9858 13.0599C11.4336 13.0524 10.992 12.5987 10.9994 12.0464L11.0003 11.9864C11.0077 11.4342 11.4615 10.9926 12.0137 11.0001ZM16.3334 12.0136C16.3409 11.4613 15.8993 11.0076 15.3471 11.0001C14.7948 10.9926 14.3411 11.4342 14.3336 11.9864L14.3328 12.0464C14.3253 12.5987 14.7669 13.0524 15.3191 13.0599C15.8714 13.0674 16.3251 12.6258 16.3326 12.0736L16.3334 12.0136Z" fill="white"/>
</g>
<defs>
<clipPath id="clip0_7698_28869">
<rect width="24" height="24" fill="white"/>
</clipPath>
</defs>
</svg>
