<svg width="24" height="24" viewBox="0 0 24 24" fill="none" xmlns="http://www.w3.org/2000/svg">
<g clip-path="url(#clip0_82_25938)">
<path d="M10.2467 3.05494C11.0059 1.67049 12.9948 1.67049 13.754 3.05493L22.5191 19.0383C23.25 20.3712 22.2856 22 20.7654 22H3.23526C1.71515 22 0.750718 20.3712 1.48164 19.0383L10.2467 3.05494Z" fill="#FFF4D1"/>
<path fill-rule="evenodd" clip-rule="evenodd" d="M12.0008 7.78564C12.5531 7.78564 13.0008 8.23336 13.0008 8.78564V13.7856C13.0008 14.3379 12.5531 14.7856 12.0008 14.7856C11.4485 14.7856 11.0008 14.3379 11.0008 13.7856V8.78564C11.0008 8.23336 11.4485 7.78564 12.0008 7.78564ZM12.0144 16.2972C12.5666 16.3047 13.0082 16.7584 13.0007 17.3106L12.9999 17.3706C12.9924 17.9229 12.5387 18.3645 11.9864 18.357C11.4342 18.3495 10.9926 17.8957 11.0001 17.3435L11.0009 17.2835C11.0084 16.7313 11.4621 16.2897 12.0144 16.2972Z" fill="#070F16" fill-opacity="0.82"/>
</g>
<defs>
<clipPath id="clip0_82_25938">
<rect width="24" height="24" fill="white"/>
</clipPath>
</defs>
</svg>
