<svg width="24" height="24" viewBox="0 0 24 24" fill="none" xmlns="http://www.w3.org/2000/svg">
<path fill-rule="evenodd" clip-rule="evenodd" d="M12 2C6.57143 2 2 6.57143 2 12C2 17.4286 6.57143 22 12 22C17.4286 22 22 17.5714 22 12C22 6.42857 17.5714 2 12 2Z" fill="#FCEEEE"/>
<path fill-rule="evenodd" clip-rule="evenodd" d="M12.0008 6.71411C12.5531 6.71411 13.0008 7.16183 13.0008 7.71411V12.7141C13.0008 13.2664 12.5531 13.7141 12.0008 13.7141C11.4485 13.7141 11.0008 13.2664 11.0008 12.7141V7.71411C11.0008 7.16183 11.4485 6.71411 12.0008 6.71411ZM12.0144 15.2256C12.5666 15.2331 13.0082 15.6869 13.0007 16.2391L12.9999 16.2991C12.9924 16.8513 12.5387 17.2929 11.9864 17.2854C11.4342 17.278 10.9926 16.8242 11.0001 16.272L11.0009 16.212C11.0084 15.6598 11.4621 15.2182 12.0144 15.2256Z" fill="#EE444A"/>
</svg>
